<svg id="visual" viewBox="0 0 1920 1080" width="1920" height="1080" xmlns="http://www.w3.org/2000/svg" xmlns:xlink="http://www.w3.org/1999/xlink" version="1.1"><path d="M0 359L45.7 355.5C91.3 352 182.7 345 274.2 338.2C365.7 331.3 457.3 324.7 548.8 331.5C640.3 338.3 731.7 358.7 823 371.8C914.3 385 1005.7 391 1097 384.2C1188.3 377.3 1279.7 357.7 1371.2 366C1462.7 374.3 1554.3 410.7 1645.8 406.3C1737.3 402 1828.7 357 1874.3 334.5L1920 312L1920 0L1874.3 0C1828.7 0 1737.3 0 1645.8 0C1554.3 0 1462.7 0 1371.2 0C1279.7 0 1188.3 0 1097 0C1005.7 0 914.3 0 823 0C731.7 0 640.3 0 548.8 0C457.3 0 365.7 0 274.2 0C182.7 0 91.3 0 45.7 0L0 0Z" fill="#4facf7"></path><path d="M0 348L45.7 347.8C91.3 347.7 182.7 347.3 274.2 348.2C365.7 349 457.3 351 548.8 341.3C640.3 331.7 731.7 310.3 823 308.7C914.3 307 1005.7 325 1097 317.3C1188.3 309.7 1279.7 276.3 1371.2 272.5C1462.7 268.7 1554.3 294.3 1645.8 307.8C1737.3 321.3 1828.7 322.7 1874.3 323.3L1920 324L1920 0L1874.3 0C1828.7 0 1737.3 0 1645.8 0C1554.3 0 1462.7 0 1371.2 0C1279.7 0 1188.3 0 1097 0C1005.7 0 914.3 0 823 0C731.7 0 640.3 0 548.8 0C457.3 0 365.7 0 274.2 0C182.7 0 91.3 0 45.7 0L0 0Z" fill="#2b9dfc"></path><path d="M0 259L45.7 251.2C91.3 243.3 182.7 227.7 274.2 228.5C365.7 229.3 457.3 246.7 548.8 249C640.3 251.3 731.7 238.7 823 238.7C914.3 238.7 1005.7 251.3 1097 244.8C1188.3 238.3 1279.7 212.7 1371.2 216.7C1462.7 220.7 1554.3 254.3 1645.8 265.2C1737.3 276 1828.7 264 1874.3 258L1920 252L1920 0L1874.3 0C1828.7 0 1737.3 0 1645.8 0C1554.3 0 1462.7 0 1371.2 0C1279.7 0 1188.3 0 1097 0C1005.7 0 914.3 0 823 0C731.7 0 640.3 0 548.8 0C457.3 0 365.7 0 274.2 0C182.7 0 91.3 0 45.7 0L0 0Z" fill="#008cff"></path><path d="M0 119L45.7 122C91.3 125 182.7 131 274.2 133.5C365.7 136 457.3 135 548.8 142.7C640.3 150.3 731.7 166.7 823 162C914.3 157.3 1005.7 131.7 1097 128.5C1188.3 125.3 1279.7 144.7 1371.2 148.5C1462.7 152.3 1554.3 140.7 1645.8 141.3C1737.3 142 1828.7 155 1874.3 161.5L1920 168L1920 0L1874.3 0C1828.7 0 1737.3 0 1645.8 0C1554.3 0 1462.7 0 1371.2 0C1279.7 0 1188.3 0 1097 0C1005.7 0 914.3 0 823 0C731.7 0 640.3 0 548.8 0C457.3 0 365.7 0 274.2 0C182.7 0 91.3 0 45.7 0L0 0Z" fill="#007aff"></path><path d="M0 49L45.7 55.5C91.3 62 182.7 75 274.2 88.8C365.7 102.7 457.3 117.3 548.8 111.8C640.3 106.3 731.7 80.7 823 80.7C914.3 80.7 1005.7 106.3 1097 115.8C1188.3 125.3 1279.7 118.7 1371.2 110.8C1462.7 103 1554.3 94 1645.8 85.5C1737.3 77 1828.7 69 1874.3 65L1920 61L1920 0L1874.3 0C1828.7 0 1737.3 0 1645.8 0C1554.3 0 1462.7 0 1371.2 0C1279.7 0 1188.3 0 1097 0C1005.7 0 914.3 0 823 0C731.7 0 640.3 0 548.8 0C457.3 0 365.7 0 274.2 0C182.7 0 91.3 0 45.7 0L0 0Z" fill="#0066ff"></path></svg>