<svg id="visual" viewBox="0 0 1920 1080" width="1920" height="1080" xmlns="http://www.w3.org/2000/svg" xmlns:xlink="http://www.w3.org/1999/xlink" version="1.1"><path d="M0 203L11.8 198.3C23.7 193.7 47.3 184.3 71 178.5C94.7 172.7 118.3 170.3 142 167.2C165.7 164 189.3 160 213 160C236.7 160 260.3 164 284.2 157C308 150 332 132 355.8 123C379.7 114 403.3 114 427 122C450.7 130 474.3 146 498 143.2C521.7 140.3 545.3 118.7 569 114.2C592.7 109.7 616.3 122.3 640 136.8C663.7 151.3 687.3 167.7 711 169.8C734.7 172 758.3 160 782 155.5C805.7 151 829.3 154 853 163.7C876.7 173.3 900.3 189.7 924.2 180.7C948 171.7 972 137.3 995.8 131.5C1019.7 125.7 1043.3 148.3 1067 159.8C1090.7 171.3 1114.3 171.7 1138 165.8C1161.7 160 1185.3 148 1209 144.7C1232.7 141.3 1256.3 146.7 1280 151.3C1303.7 156 1327.3 160 1351 160.3C1374.7 160.7 1398.3 157.3 1422 153.8C1445.7 150.3 1469.3 146.7 1493 137.8C1516.7 129 1540.3 115 1564.2 108.3C1588 101.7 1612 102.3 1635.8 120.7C1659.7 139 1683.3 175 1707 188.3C1730.7 201.7 1754.3 192.3 1778 175.8C1801.7 159.3 1825.3 135.7 1849 123.2C1872.7 110.7 1896.3 109.3 1908.2 108.7L1920 108L1920 0L1908.2 0C1896.3 0 1872.7 0 1849 0C1825.3 0 1801.7 0 1778 0C1754.3 0 1730.7 0 1707 0C1683.3 0 1659.7 0 1635.8 0C1612 0 1588 0 1564.2 0C1540.3 0 1516.7 0 1493 0C1469.3 0 1445.7 0 1422 0C1398.3 0 1374.7 0 1351 0C1327.3 0 1303.7 0 1280 0C1256.3 0 1232.7 0 1209 0C1185.3 0 1161.7 0 1138 0C1114.3 0 1090.7 0 1067 0C1043.3 0 1019.7 0 995.8 0C972 0 948 0 924.2 0C900.3 0 876.7 0 853 0C829.3 0 805.7 0 782 0C758.3 0 734.7 0 711 0C687.3 0 663.7 0 640 0C616.3 0 592.7 0 569 0C545.3 0 521.7 0 498 0C474.3 0 450.7 0 427 0C403.3 0 379.7 0 355.8 0C332 0 308 0 284.2 0C260.3 0 236.7 0 213 0C189.3 0 165.7 0 142 0C118.3 0 94.7 0 71 0C47.3 0 23.7 0 11.8 0L0 0Z" fill="#00A6EB" stroke-linecap="round" stroke-linejoin="miter"></path></svg>