<svg id="visual" viewBox="0 0 1920 200" width="1920" height="200" xmlns="http://www.w3.org/2000/svg" xmlns:xlink="http://www.w3.org/1999/xlink" version="1.1"><path d="M0 101L29.2 110.7C58.3 120.3 116.7 139.7 174.8 143.8C233 148 291 137 349.2 118.8C407.3 100.7 465.7 75.3 523.8 76C582 76.7 640 103.3 698.2 121C756.3 138.7 814.7 147.3 872.8 138.3C931 129.3 989 102.7 1047.2 88.7C1105.3 74.7 1163.7 73.3 1221.8 70.2C1280 67 1338 62 1396.2 77.7C1454.3 93.3 1512.7 129.7 1570.8 142.5C1629 155.3 1687 144.7 1745.2 143.7C1803.3 142.7 1861.7 151.3 1890.8 155.7L1920 160" fill="none" stroke-linecap="round" stroke-linejoin="miter" stroke="#4FACF7" stroke-width="40"></path></svg>