<svg id="visual" viewBox="0 0 1920 200" width="1920" height="200" xmlns="http://www.w3.org/2000/svg" xmlns:xlink="http://www.w3.org/1999/xlink" version="1.1"><path d="M0 98L29.2 108.8C58.3 119.7 116.7 141.3 174.8 140.3C233 139.3 291 115.7 349.2 107C407.3 98.3 465.7 104.7 523.8 114C582 123.3 640 135.7 698.2 136.5C756.3 137.3 814.7 126.7 872.8 120.8C931 115 989 114 1047.2 122.8C1105.3 131.7 1163.7 150.3 1221.8 140C1280 129.7 1338 90.3 1396.2 79.3C1454.3 68.3 1512.7 85.7 1570.8 98.7C1629 111.7 1687 120.3 1745.2 111.5C1803.3 102.7 1861.7 76.3 1890.8 63.2L1920 50L1920 201L1890.8 201C1861.7 201 1803.3 201 1745.2 201C1687 201 1629 201 1570.8 201C1512.7 201 1454.3 201 1396.2 201C1338 201 1280 201 1221.8 201C1163.7 201 1105.3 201 1047.2 201C989 201 931 201 872.8 201C814.7 201 756.3 201 698.2 201C640 201 582 201 523.8 201C465.7 201 407.3 201 349.2 201C291 201 233 201 174.8 201C116.7 201 58.3 201 29.2 201L0 201Z" fill="#F2F6F9" stroke-linecap="round" stroke-linejoin="miter"></path></svg>