<svg id="visual" viewBox="0 0 1920 200" width="1920" height="200" xmlns="http://www.w3.org/2000/svg" xmlns:xlink="http://www.w3.org/1999/xlink" version="1.1"><rect x="0" y="0" width="1920" height="200" fill="#ffffff"></rect><path d="M0 142L45.7 131C91.3 120 182.7 98 274.2 87C365.7 76 457.3 76 548.8 76.7C640.3 77.3 731.7 78.7 823 89.5C914.3 100.3 1005.7 120.7 1097 125.5C1188.3 130.3 1279.7 119.7 1371.2 111.7C1462.7 103.7 1554.3 98.3 1645.8 100C1737.3 101.7 1828.7 110.3 1874.3 114.7L1920 119L1920 201L1874.3 201C1828.7 201 1737.3 201 1645.8 201C1554.3 201 1462.7 201 1371.2 201C1279.7 201 1188.3 201 1097 201C1005.7 201 914.3 201 823 201C731.7 201 640.3 201 548.8 201C457.3 201 365.7 201 274.2 201C182.7 201 91.3 201 45.7 201L0 201Z" fill="#F7F8F9" stroke-linecap="round" stroke-linejoin="miter"></path></svg>