<svg id="visual" viewBox="0 0 1920 200" width="1920" height="200" xmlns="http://www.w3.org/2000/svg" xmlns:xlink="http://www.w3.org/1999/xlink" version="1.1"><rect x="0" y="0" width="1920" height="200" fill="#ffffff"></rect><path d="M0 156L29.2 152.8C58.3 149.7 116.7 143.3 174.8 131.7C233 120 291 103 349.2 100C407.3 97 465.7 108 523.8 119.7C582 131.3 640 143.7 698.2 149C756.3 154.3 814.7 152.7 872.8 136.8C931 121 989 91 1047.2 93C1105.3 95 1163.7 129 1221.8 148.8C1280 168.7 1338 174.3 1396.2 167.3C1454.3 160.3 1512.7 140.7 1570.8 120C1629 99.3 1687 77.7 1745.2 85.7C1803.3 93.7 1861.7 131.3 1890.8 150.2L1920 169" fill="none" stroke-linecap="round" stroke-linejoin="miter" stroke="#F2F6F9" stroke-width="40"></path></svg>